%FSDAX24Y24*%
%MOIN*%
%SFA1B1*%

%IPPOS*%
%AMD51*
4,1,8,-0.026500,0.006900,-0.026500,-0.006900,-0.024600,-0.008800,0.024600,-0.008800,0.026500,-0.006900,0.026500,0.006900,0.024600,0.008800,-0.024600,0.008800,-0.026500,0.006900,0.0*
1,1,0.003800,-0.024600,0.006900*
1,1,0.003800,-0.024600,-0.006900*
1,1,0.003800,0.024600,-0.006900*
1,1,0.003800,0.024600,0.006900*
%
%ADD14R,0.021700X0.025600*%
%ADD15R,0.039400X0.035400*%
%ADD16R,0.010600X0.020500*%
%ADD17R,0.014200X0.020500*%
%ADD18R,0.020500X0.010600*%
%ADD19R,0.020500X0.014200*%
%ADD20R,0.024400X0.024400*%
%ADD21R,0.031500X0.031500*%
%ADD22O,0.065000X0.017700*%
%ADD23R,0.106300X0.106300*%
%ADD24O,0.031500X0.009800*%
%ADD25O,0.009800X0.031500*%
%ADD26R,0.024400X0.024400*%
%ADD50R,0.017700X0.025600*%
G04~CAMADD=51~8~0.0~0.0~177.0~531.0~19.0~0.0~15~0.0~0.0~0.0~0.0~0~0.0~0.0~0.0~0.0~0~0.0~0.0~0.0~90.0~530.0~176.0*
%ADD51D51*%
%ADD52R,0.015700X0.041300*%
%ADD53C,0.010000*%
%ADD54C,0.008000*%
%ADD55C,0.023600*%
%ADD56C,0.020000*%
%ADD57C,0.030000*%
%ADD58C,0.018000*%
%ADD59C,0.012000*%
%ADD60C,0.017000*%
%ADD61C,0.022000*%
%ADD62C,0.039400*%
%ADD63R,0.039400X0.039400*%
%ADD64R,0.059100X0.059100*%
%ADD65C,0.059100*%
%ADD66O,0.059100X0.078700*%
%ADD67R,0.059100X0.059100*%
%ADD68C,0.035400*%
%ADD69C,0.023600*%
%LNptw_ecu_cp_v1.0-1*%
%LPD*%
G36*
X017679Y011120D02*
X011620D01*
Y022415*
X012906*
X012931Y022355*
X012846Y022270*
X012570*
Y021857*
Y021837*
X012526Y021797*
X012495*
X012494*
X012435*
X012434*
X012417*
X012373Y021837*
Y022270*
X011940*
Y021837*
X012098*
Y021659*
X012100Y021647*
Y021423*
X012434*
X012435*
X012494*
X012495*
X012829*
Y021463*
X012888Y021483*
X012947Y021443*
X013016Y021430*
X013085Y021443*
X013143Y021483*
X013183Y021541*
X013196Y021610*
X013183Y021679*
X013143Y021738*
X013085Y021777*
X013030Y021788*
X013007Y021828*
X013003Y021849*
Y022112*
X013088Y022198*
X013242*
X013295Y022181*
Y022138*
Y021472*
X013746*
X013750Y021454*
X013774Y021417*
X014075Y021116*
X014046Y021061*
X014039Y021062*
X013921*
Y021063*
X013756*
X013711Y021108*
X013674Y021132*
X013632Y021141*
X012927*
X012885Y021132*
X012849Y021108*
X012794Y021054*
X012696*
Y021070*
X012691Y021082*
Y021129*
X012644*
X012632Y021134*
X012415*
X012414*
X012356Y021129*
X012339Y021119*
X012279Y021150*
X012150*
Y021070*
X012332*
X012204Y020942*
X012332Y020814*
X012150*
Y020734*
X012279*
X012339Y020766*
X012356Y020755*
X012414Y020751*
X012415*
X012632*
X012644Y020755*
X012691*
Y020803*
X012696Y020814*
Y020831*
X012840*
X012883Y020840*
X012919Y020864*
X012973Y020918*
X013586*
X013598Y020906*
Y020839*
X013921*
Y020840*
X013993*
X014034Y020799*
X014004Y020744*
X014003*
X013921*
Y020748*
X013598*
Y020681*
X013546Y020629*
X013035*
X012993Y020620*
X012957Y020596*
X012783Y020422*
X012706*
Y020439*
X012701Y020451*
Y020498*
X012653*
X012642Y020503*
X012425*
X012424*
X012366Y020498*
X012349Y020487*
X012289Y020519*
X012160*
Y020439*
X012342*
X012214Y020311*
X012342Y020183*
X012160*
Y020103*
X012289*
X012349Y020135*
X012366Y020124*
X012424Y020120*
X012425Y020119*
X012631*
X012652Y020090*
X012661Y020064*
X012430Y019833*
X012245Y019648*
X012206Y019589*
X012192Y019520*
Y015534*
X012191Y015532*
Y015287*
X012192Y015285*
Y013179*
X012206Y013110*
X012245Y013051*
X012366Y012930*
Y012693*
X012428*
X012430Y012634*
X012385Y012615*
X012366Y012570*
Y012535*
Y012063*
Y011597*
X012385Y011552*
X012430Y011533*
X012608*
X012642Y011527*
X012675Y011533*
X012972*
X013018Y011552*
X013036Y011597*
Y011737*
X013217*
X013262Y011756*
X013299Y011793*
X013335*
Y011829*
X013473Y011967*
X013492Y012012*
Y012136*
X013494Y012148*
X013497Y012152*
X013502Y012156*
X013514Y012158*
X014000*
X014020Y012166*
X014041Y012173*
X014081Y012206*
X014082Y012209*
X014085Y012210*
X014093Y012230*
X014103Y012250*
X014102Y012252*
X014103Y012255*
Y012680*
X014440*
X014877Y012243*
X014917Y012217*
X014963Y012207*
X015137*
X015147Y012200*
X015181Y012147*
X015180Y012142*
Y012004*
X015186Y011973*
X015203Y011947*
Y011943*
X015186Y011917*
X015180Y011886*
Y011748*
X015186Y011717*
X015203Y011691*
X015229Y011674*
X015260Y011668*
X015752*
X015783Y011674*
X015809Y011691*
X015826Y011717*
X015832Y011748*
Y011886*
X015826Y011917*
X015809Y011943*
Y011947*
X015826Y011973*
X015832Y012004*
Y012142*
X015826Y012173*
X015809Y012199*
Y012203*
X015826Y012229*
X015832Y012260*
Y012349*
X015892Y012384*
X015909Y012375*
Y012280*
X016421*
Y012312*
X016656*
X016746Y012295*
X016838Y012313*
X016916Y012365*
X016969Y012443*
X016987Y012535*
X016969Y012628*
X016916Y012706*
X016838Y012758*
X016746Y012776*
X016654Y012758*
X016625Y012739*
X016421*
Y012752*
X015909*
Y012735*
X015513*
X015506Y012737*
X015492Y012734*
X015260*
X015229Y012728*
X015203Y012710*
X015186Y012684*
X015180Y012654*
Y012516*
X015181Y012510*
X015147Y012457*
X015137Y012450*
X015013*
X014577Y012887*
X014537Y012913*
X014491Y012923*
X014139*
Y013224*
X013764*
X013389*
Y012997*
X013335Y012982*
X012972*
Y012634*
X012880*
X012878Y012693*
Y012694*
Y013165*
X012641*
X012553Y013254*
Y013801*
X012575Y013816*
X012613Y013828*
X012661Y013796*
X012730Y013782*
X012799Y013796*
X012858Y013835*
X012897Y013893*
X012911Y013963*
X012897Y014032*
X012858Y014090*
X012799Y014129*
X012747Y014140*
X012711Y014176*
Y014878*
X012722Y014894*
X012725Y014909*
X012734*
Y015063*
X012736Y015074*
Y015218*
X012760Y015241*
X012802Y015235*
X012825Y015220*
Y014909*
X012892*
X013308Y014493*
Y014406*
X013292Y014395*
X013252Y014337*
X013239Y014268*
X013252Y014199*
X013292Y014140*
X013350Y014101*
X013419Y014087*
X013488Y014101*
X013547Y014140*
X013586Y014199*
X013600Y014268*
X013586Y014337*
X013547Y014395*
X013530Y014406*
Y014539*
X013522Y014582*
X013498Y014618*
X013050Y015066*
X013051Y015074*
Y015214*
X013094Y015243*
X013133Y015301*
X013139Y015330*
X013143Y015335*
X013151Y015378*
X013143Y015420*
X013135Y015432*
X013133Y015439*
X013094Y015498*
X013036Y015537*
X012967Y015551*
X012897Y015537*
X012893Y015534*
X012819Y015557*
X012799Y015587*
X012740Y015626*
X012671Y015640*
X012613Y015628*
X012553Y015660*
Y018205*
X012660*
X012661*
X012720*
X012727Y018200*
X012707Y018140*
X012667*
Y017778*
X013030*
Y018140*
X012989*
Y018205*
X013055*
Y018340*
X013143*
X013154Y018323*
X013212Y018284*
X013282Y018270*
X013351Y018284*
X013409Y018323*
X013448Y018382*
X013462Y018451*
X013449Y018517*
Y018527*
X013479Y018577*
X014077*
X014085Y018536*
X014109Y018501*
X014145Y018477*
X014149Y018476*
X014169Y018411*
X014094Y018336*
X013685*
X013642Y018327*
X013606Y018303*
X013213Y017909*
X013189Y017873*
X013180Y017831*
Y015665*
X013189Y015623*
X013213Y015587*
X013616Y015183*
X013652Y015159*
X013695Y015151*
X014974*
X015017Y015159*
X015053Y015183*
X015318Y015448*
X015373Y015425*
Y013580*
X015357Y013573*
X015283Y013516*
X015226Y013442*
X015190Y013356*
X015178Y013264*
X015190Y013171*
X015226Y013085*
X015283Y013011*
X015357Y012954*
X015443Y012919*
X015535Y012906*
X015628Y012919*
X015714Y012954*
X015788Y013011*
X015845Y013085*
X015881Y013171*
X015893Y013264*
X015881Y013356*
X015845Y013442*
X015788Y013516*
X015714Y013573*
X015698Y013580*
Y015506*
X015714Y015513*
X015788Y015570*
X015845Y015644*
X015881Y015730*
X015893Y015823*
X015881Y015915*
X015845Y016002*
X015788Y016076*
X015714Y016132*
X015628Y016168*
X015535Y016180*
X015443Y016168*
X015357Y016132*
X015283Y016076*
X015226Y016002*
X015190Y015915*
X015178Y015823*
X015190Y015730*
X015218Y015663*
X014928Y015373*
X013784*
X013776Y015385*
X013807Y015450*
X013862Y015457*
X013953Y015495*
X014031Y015555*
X014092Y015634*
X014129Y015725*
X014137Y015783*
X013764*
Y015863*
X014137*
X014129Y015921*
X014092Y016012*
X014031Y016090*
X013984Y016127*
X014004Y016187*
X014177*
Y016332*
X014186*
X014225Y016340*
X014258Y016362*
X014285Y016389*
X014345Y016405*
X014369Y016390*
X014395Y016373*
X014453Y016361*
X014925*
X014983Y016373*
X015032Y016405*
X015064Y016454*
X015076Y016512*
X015064Y016569*
X015032Y016618*
X014983Y016651*
X014925Y016662*
X014453*
X014407Y016653*
X014347Y016685*
Y017084*
X014394Y017122*
X014395Y017121*
X014453Y017109*
X014682*
X014689Y017108*
X014922*
X014981Y017119*
X014982Y017121*
X014983*
X015032Y017153*
X015033Y017156*
X015130Y017253*
X015194Y017231*
X015200Y017202*
X015232Y017153*
X015281Y017121*
X015339Y017109*
X015562*
X015576Y017106*
X015907*
X016283Y016730*
X016279Y016709*
X016297Y016616*
X016349Y016538*
X016423Y016489*
X016426Y016458*
X016423Y016426*
X016372Y016392*
X016143*
X015919Y016616*
X015917Y016618*
X015869Y016651*
X015868*
X015866Y016652*
X015808Y016664*
X015575*
X015568Y016662*
X015339*
X015281Y016651*
X015232Y016618*
X015200Y016569*
X015188Y016512*
X015200Y016454*
X015232Y016405*
X015281Y016373*
X015339Y016361*
X015568*
X015575Y016360*
X015745*
X015972Y016133*
X016022Y016100*
X016080Y016088*
X016315*
X016349Y016036*
X016423Y015987*
X016759Y015651*
Y015242*
X016264*
Y014730*
X016309*
X016327Y014696*
X016332Y014670*
X016296Y014623*
X016270Y014561*
X016262Y014494*
X016270Y014427*
X016296Y014365*
X016337Y014312*
X016355Y014298*
X016358Y014292*
X016354Y014223*
X016322Y014199*
X016278Y014142*
X016253Y014082*
X016520*
Y013922*
X016253*
X016278Y013862*
X016322Y013805*
X016354Y013781*
X016358Y013712*
X016355Y013706*
X016337Y013692*
X016296Y013639*
X016270Y013577*
X016262Y013510*
X016270Y013443*
X016296Y013381*
X016337Y013327*
X016391Y013286*
X016453Y013261*
X016520Y013252*
X016586Y013261*
X016649Y013286*
X016686Y013315*
X016734*
X016816Y013331*
X016885Y013377*
X017123Y013615*
X017169Y013684*
X017186Y013766*
Y015739*
X017169Y015821*
X017123Y015890*
X016749Y016264*
X016742Y016299*
X016690Y016377*
X016617Y016426*
X016614Y016458*
X016617Y016489*
X016690Y016538*
X016725Y016590*
X016799*
X016857Y016602*
X016907Y016635*
X017119Y016847*
X017152Y016897*
X017164Y016955*
Y017476*
X017152Y017535*
X017119Y017584*
X016510Y018193*
Y018352*
X016175*
X016168*
X016116Y018412*
Y018746*
X015782*
Y018372*
X015781*
Y018352*
X015782*
Y018277*
X015296*
X015086Y018486*
Y018686*
X015085Y018694*
Y018795*
X015076Y018838*
X015052Y018873*
X015017Y018897*
X014974Y018906*
X014932Y018897*
X014918Y018888*
X014876Y018878*
X014834Y018888*
X014820Y018897*
X014778Y018906*
X014735Y018897*
X014699Y018873*
X014659*
X014623Y018897*
X014581Y018906*
X014538Y018897*
X014503Y018873*
X014462*
X014426Y018897*
X014384Y018906*
X014342Y018897*
X014328Y018888*
X014285Y018878*
X014243Y018888*
X014229Y018897*
X014187Y018906*
X014145Y018897*
X014109Y018873*
X014085Y018838*
X014077Y018799*
X013159*
X012965Y018993*
X012959Y019019*
X012970Y019072*
X012980Y019079*
X013033Y019069*
X013100*
Y019028*
X013463*
Y019166*
X013539*
X013552Y019153*
X013580Y019106*
X013575Y019081*
X013583Y019038*
X013607Y019003*
X013643Y018979*
X013685Y018970*
X013902*
X013944Y018979*
X013980Y019003*
X014004Y019038*
X014012Y019081*
X014004Y019123*
X013994Y019137*
X013984Y019179*
X013994Y019221*
X014004Y019235*
X014012Y019278*
X014004Y019320*
X013980Y019356*
X013944Y019380*
X013902Y019388*
X013797*
X013793Y019389*
X013789Y019388*
X013463*
Y019390*
X013275*
X013259Y019393*
X013100*
X012800Y019693*
X013090Y019982*
X013144Y019972*
X013236Y019990*
X013314Y020042*
X013366Y020120*
X013385Y020213*
X013366Y020305*
X013338Y020347*
X013370Y020407*
X013593*
X013635Y020415*
X013671Y020439*
X013755Y020523*
X013763Y020521*
X013957*
X014075Y020404*
Y020263*
X014077Y020255*
Y020154*
X014085Y020111*
X014109Y020075*
X014145Y020052*
X014187Y020043*
X014229Y020052*
X014243Y020061*
X014285Y020071*
X014328Y020061*
X014342Y020052*
X014384Y020043*
X014426Y020052*
X014440Y020061*
X014482Y020071*
X014524Y020061*
X014538Y020052*
X014581Y020043*
X014623Y020052*
X014659Y020075*
X014699*
X014735Y020052*
X014778Y020043*
X014820Y020052*
X014856Y020075*
X014896*
X014932Y020052*
X014974Y020043*
X015017Y020052*
X015052Y020075*
X015076Y020111*
X015084Y020151*
X015190*
X015201Y020134*
X015260Y020095*
X015329Y020081*
X015398Y020095*
X015456Y020134*
X015496Y020193*
X015509Y020262*
X015496Y020331*
X015456Y020390*
X015398Y020429*
X015329Y020442*
X015260Y020429*
X015201Y020390*
X015190Y020373*
X015084*
X015076Y020412*
X015052Y020448*
X015017Y020472*
X014974Y020480*
X014956Y020477*
X014941Y020511*
Y020513*
X014973Y020557*
X015008*
Y020711*
X015010Y020722*
Y020839*
X015043Y020872*
X015067Y020908*
X015076Y020951*
Y021512*
X015067Y021554*
X015043Y021590*
X014967Y021667*
X014995Y021734*
X015007Y021827*
X014995Y021919*
X014959Y022005*
X014902Y022079*
X014828Y022136*
X014824Y022138*
X014836Y022198*
X015121*
X015332Y021987*
X015304Y021919*
X015292Y021827*
X015304Y021734*
X015340Y021648*
X015397Y021574*
X015471Y021517*
X015548Y021485*
Y021247*
X015561Y021181*
X015599Y021125*
X015853Y020871*
Y020569*
X015856Y020552*
Y020376*
X015913*
Y020295*
X015870*
Y020071*
X016193*
Y020295*
X016156*
Y020376*
X016219*
Y020738*
X016198*
Y020942*
X016185Y021008*
X016147Y021064*
X015893Y021319*
Y021567*
X015902Y021574*
X015959Y021648*
X015995Y021734*
X016007Y021827*
X015995Y021919*
X015959Y022005*
X015902Y022079*
X015828Y022136*
X015742Y022172*
X015650Y022184*
X015557Y022172*
X015490Y022144*
X015279Y022355*
X015303Y022415*
X017679*
Y011120*
G37*
G36*
X012632Y020814D02*
X012415D01*
X012287Y020942*
X012415Y021070*
X012632*
Y020814*
G37*
G36*
X014475Y022138D02*
X014471Y022136D01*
X014397Y022079*
X014340Y022005*
X014304Y021919*
X014292Y021827*
X014304Y021734*
X014340Y021648*
X014397Y021574*
X014471Y021517*
X014557Y021482*
X014650Y021469*
X014742Y021482*
X014810Y021510*
X014853Y021466*
Y020997*
X014820Y020964*
X014801Y020935*
X014800Y020933*
X014796Y020928*
X014783Y020880*
Y020732*
X014752Y020708*
X014693Y020734*
Y020880*
X014626*
X014004Y021502*
Y022138*
Y022181*
X014057Y022198*
X014463*
X014475Y022138*
G37*
G36*
X012642Y020183D02*
X012425D01*
X012297Y020311*
X012425Y020439*
X012642*
Y020183*
G37*
G36*
X015171Y018087D02*
X015207Y018063D01*
X015250Y018054*
X015782*
Y017978*
X016116*
X016175*
X016295*
X016860Y017413*
Y017018*
X016736Y016894*
X016667*
X016626Y016921*
X016623Y016936*
Y016973*
X016626Y016988*
X016690Y017030*
X016742Y017109*
X016761Y017201*
X016742Y017293*
X016690Y017371*
X016612Y017423*
X016520Y017442*
X016498Y017437*
X016243Y017692*
X016194Y017725*
X016136Y017737*
X015247*
X015189Y017725*
X015140Y017692*
X014859Y017412*
X014689*
X014682Y017410*
X014453*
X014395Y017399*
X014346Y017366*
X014326Y017335*
X014316Y017333*
X014283Y017312*
X014175Y017203*
X014153Y017171*
X014145Y017132*
Y016561*
X013843*
X013835*
X013783Y016621*
Y016955*
X013780*
X013754Y017004*
Y017535*
X013756Y017594*
X013951*
Y017906*
X014616*
X014658Y017914*
X014694Y017938*
X014856Y018100*
X014880Y018136*
X014889Y018179*
Y018284*
X014949Y018309*
X015171Y018087*
G37*
G36*
X014039Y012255D02*
X014000Y012222D01*
X013508*
X013477Y012216*
X013451Y012199*
X013434Y012173*
X013428Y012142*
Y012012*
X013217Y011801*
X012972*
Y011597*
X012430*
Y012570*
X013267*
X013272Y012565*
X013327Y012620*
X013335*
Y012628*
X013386Y012680*
X014039*
Y012255*
G37*
%LNptw_ecu_cp_v1.0-2*%
%LPC*%
G36*
X012070Y021150D02*
X011942D01*
Y020982*
X012022*
Y021070*
X012070*
Y021150*
G37*
G36*
X012022Y020902D02*
X011942D01*
Y020734*
X012070*
Y020814*
X012022*
Y020902*
G37*
G36*
X017071Y021275D02*
X016978Y021263D01*
X016892Y021227*
X016818Y021170*
X016761Y021096*
X016726Y021010*
X016713Y020917*
Y020720*
X016726Y020628*
X016761Y020542*
X016818Y020468*
X016892Y020411*
X016978Y020375*
X017071Y020363*
X017163Y020375*
X017250Y020411*
X017324Y020468*
X017380Y020542*
X017416Y020628*
X017428Y020720*
Y020917*
X017416Y021010*
X017380Y021096*
X017324Y021170*
X017250Y021227*
X017163Y021263*
X017071Y021275*
G37*
G36*
X012080Y020519D02*
X011952D01*
Y020351*
X012032*
Y020439*
X012080*
Y020519*
G37*
G36*
X012032Y020271D02*
X011952D01*
Y020103*
X012080*
Y020183*
X012032*
Y020271*
G37*
G36*
X015745Y019992D02*
X015683Y019980D01*
X015369*
X015361Y019978*
X015260*
X015218Y019970*
X015182Y019946*
X015158Y019910*
X015149Y019868*
X015158Y019826*
X015167Y019812*
X015177Y019770*
X015167Y019728*
X015158Y019713*
X015149Y019671*
X015158Y019629*
X015182Y019593*
Y019552*
X015158Y019517*
X015149Y019474*
X015158Y019432*
X015167Y019418*
X015177Y019376*
X015167Y019334*
X015158Y019320*
X015149Y019278*
X015158Y019235*
X015167Y019221*
X015177Y019179*
X015167Y019137*
X015158Y019123*
X015149Y019081*
X015158Y019038*
X015182Y019003*
X015218Y018979*
X015260Y018970*
X015262*
Y018872*
X015250Y018864*
X015211Y018805*
X015197Y018736*
X015211Y018667*
X015250Y018608*
X015309Y018569*
X015378Y018556*
X015447Y018569*
X015506Y018608*
X015545Y018667*
X015559Y018736*
X015545Y018805*
X015506Y018864*
X015484Y018878*
Y018972*
X015519Y018979*
X015554Y019003*
X015578Y019038*
X015587Y019081*
X015578Y019123*
X015569Y019137*
X015559Y019179*
X015569Y019221*
X015578Y019235*
X015587Y019278*
X015578Y019320*
X015569Y019334*
X015559Y019376*
X015569Y019418*
X015578Y019432*
X015587Y019474*
X015578Y019517*
X015554Y019552*
Y019593*
X015578Y019629*
X015580Y019640*
X015644Y019666*
X015676Y019645*
X015745Y019631*
X015814Y019645*
X015867Y019680*
X015904Y019670*
X015928Y019658*
X015935Y019622*
X015959Y019586*
X016613Y018933*
X016649Y018908*
X016692Y018900*
X016713Y018848*
Y018720*
X016726Y018628*
X016761Y018542*
X016818Y018468*
X016892Y018411*
X016978Y018375*
X017071Y018363*
X017163Y018375*
X017250Y018411*
X017324Y018468*
X017380Y018542*
X017416Y018628*
X017428Y018720*
Y018917*
X017416Y019010*
X017380Y019096*
X017324Y019170*
X017250Y019227*
X017163Y019263*
X017071Y019275*
X016978Y019263*
X016892Y019227*
X016818Y019170*
X016792Y019136*
X016727Y019133*
X016164Y019696*
X016185Y019756*
X016193*
Y019980*
X016039*
X016028Y019982*
X015795*
X015745Y019992*
G37*
G36*
X017111Y020291D02*
Y019859D01*
X017449*
Y019917*
X017436Y020015*
X017399Y020107*
X017339Y020185*
X017260Y020245*
X017169Y020283*
X017111Y020291*
G37*
G36*
X017031D02*
X016973Y020283D01*
X016882Y020245*
X016803Y020185*
X016743Y020107*
X016705Y020015*
X016692Y019917*
Y019859*
X017031*
Y020291*
G37*
G36*
X013902Y019978D02*
X013685D01*
X013643Y019970*
X013607Y019946*
X013583Y019910*
X013575Y019868*
X013583Y019826*
X013592Y019812*
X013602Y019770*
X013592Y019728*
X013583Y019713*
X013575Y019671*
X013583Y019629*
X013607Y019593*
X013643Y019569*
X013685Y019561*
X013902*
X013944Y019569*
X013980Y019593*
X014004Y019629*
X014012Y019671*
X014004Y019713*
X013994Y019728*
X013984Y019770*
X013994Y019812*
X014004Y019826*
X014012Y019868*
X014004Y019910*
X013980Y019946*
X013944Y019970*
X013902Y019978*
G37*
G36*
X017449Y019779D02*
X017111D01*
Y019347*
X017169Y019355*
X017260Y019393*
X017339Y019453*
X017399Y019531*
X017436Y019623*
X017449Y019720*
Y019779*
G37*
G36*
X017031D02*
X016692D01*
Y019720*
X016705Y019623*
X016743Y019531*
X016803Y019453*
X016882Y019393*
X016973Y019355*
X017031Y019347*
Y019779*
G37*
G36*
X014139Y013639D02*
X013804D01*
Y013304*
X014139*
Y013639*
G37*
G36*
X013724D02*
X013389D01*
Y013304*
X013724*
Y013639*
G37*
%LNptw_ecu_cp_v1.0-3*%
%LPD*%
G54D14*
X013616Y016374D03*
X014010D03*
X012533Y020311D03*
X012524Y020942D03*
X012268Y021610D03*
X012661D03*
X012494Y018392D03*
X012888D03*
X015949Y018165D03*
X016343D03*
Y018559D03*
X015949D03*
X014010Y016768D03*
X013616D03*
G54D15*
X012622Y012929D03*
Y012299D03*
X016165Y011886D03*
Y012516D03*
G54D16*
X012937Y015071D03*
X012622D03*
X014581Y020719D03*
X014896D03*
G54D17*
X012780Y014685D03*
X014738Y021104D03*
G54D18*
X013760Y020636D03*
Y020951D03*
X016032Y020183D03*
Y019868D03*
G54D19*
X013374Y020793D03*
X016417Y020026D03*
G54D20*
X012848Y017959D03*
Y017604D03*
X013154Y011620D03*
Y011974D03*
Y012801D03*
Y012447D03*
X013281Y019563D03*
Y019209D03*
G54D21*
X012156Y022053D03*
X012786D03*
G54D22*
X014689Y017260D03*
Y016886D03*
Y016512D03*
X015575Y017260D03*
Y016886D03*
Y016512D03*
G54D23*
X014581Y019474D03*
G54D24*
X015368Y019868D03*
Y019671D03*
Y019474D03*
Y019278D03*
Y019081D03*
X013793D03*
Y019278D03*
Y019474D03*
Y019671D03*
Y019868D03*
G54D25*
X014974Y018687D03*
X014778D03*
X014581D03*
X014384D03*
X014187D03*
Y020262D03*
X014384D03*
X014581D03*
X014778D03*
X014974D03*
G54D26*
X016392Y020557D03*
X016037D03*
G54D50*
X012120Y020311D03*
X012110Y020942D03*
G54D51*
X015506Y011817D03*
Y012073D03*
Y012329D03*
X013754Y011817D03*
Y012073D03*
Y012329D03*
Y012585D03*
X015506D03*
G54D52*
X013616Y017270D03*
X014010D03*
X013813Y017860D03*
G54D53*
X013032Y015370D02*
X013033D01*
X012940Y015278D02*
X013033Y015370D01*
X012967D02*
X013032D01*
X013033D02*
X013040Y015378D01*
X013291Y015665D02*
Y017831D01*
Y015665D02*
X013695Y015262D01*
X014974*
X013419Y014268D02*
Y014539D01*
X012937Y015022D02*
X013419Y014539D01*
X014974Y015262D02*
X015535Y015823D01*
X013291Y017831D02*
X013685Y018224D01*
X014140*
X013113Y018688D02*
X014186D01*
X014187Y018687*
X012750Y019022D02*
X012780D01*
X013113Y018688*
X013616Y016768D02*
Y017270D01*
Y016768D02*
D01*
D01*
Y016374D02*
Y016768D01*
X012619Y014937D02*
Y015068D01*
X012600Y014918D02*
X012619Y014937D01*
X014616Y018017D02*
X014778Y018179D01*
X013842Y018017D02*
X014616D01*
X013813Y017988D02*
X013842Y018017D01*
X013813Y017860D02*
Y017988D01*
X015745Y019812D02*
Y019867D01*
X015743Y019869D02*
X015745Y019867D01*
Y019812D02*
Y019858D01*
X015759Y019871*
X012667Y015396D02*
X012730Y015459D01*
X012671D02*
X012730D01*
X012625Y015307D02*
X012691Y015373D01*
X012667Y015396D02*
X012691Y015373D01*
X012533Y020311D02*
X012829D01*
X013035Y020518D02*
X013593D01*
X012829Y020311D02*
X013035Y020518D01*
X012600Y014130D02*
Y014918D01*
Y014130D02*
X012730Y013999D01*
X012622Y015071D02*
X012625Y015074D01*
X012619Y015068D02*
X012622Y015071D01*
X012730Y013963D02*
Y013999D01*
X012625Y015074D02*
Y015307D01*
X012940Y015074D02*
Y015278D01*
X012937Y015071D02*
X012940Y015074D01*
X012888Y018393D02*
X012946Y018451D01*
X012888Y018392D02*
Y018393D01*
X012946Y018451D02*
X013245D01*
X012878Y018382D02*
X012888Y018392D01*
X012878Y017969D02*
Y018382D01*
X012868Y017959D02*
X012878Y017969D01*
X014975Y018440D02*
X015250Y018165D01*
X014975Y018440D02*
Y018686D01*
X014974Y018687D02*
X014975Y018686D01*
X015250Y018165D02*
X015949D01*
X014532Y018291D02*
X014581Y018340D01*
X015949Y018165D02*
D01*
Y018559D01*
X014532Y018254D02*
Y018291D01*
X014581Y018340D02*
Y018687D01*
X014778Y018179D02*
Y018687D01*
X014384Y018469D02*
Y018687D01*
X014140Y018224D02*
X014384Y018469D01*
X012839Y017969D02*
X012853Y017983D01*
X015373Y018741D02*
X015378Y018736D01*
X015373Y018741D02*
Y019080D01*
X015372Y019081D02*
X015373Y019080D01*
X015368Y019081D02*
X015372D01*
X013042Y022309D02*
X015167D01*
X015650Y021827*
X012786Y022053D02*
X013042Y022309D01*
X012661Y021610D02*
X013016D01*
X012661D02*
D01*
X013281Y019209D02*
X013350Y019277D01*
X013793*
Y019278*
X014974Y020262D02*
X015329D01*
X013593Y020518D02*
X013711Y020636D01*
X013760*
X012524Y020942D02*
X012840D01*
X012927Y021030*
X013632*
X013711Y020951*
X013760*
X014039*
X014384Y020606*
Y020262D02*
Y020606D01*
X014003Y020633D02*
X014186Y020450D01*
Y020263D02*
Y020450D01*
Y020263D02*
X014187Y020262D01*
X013763Y020633D02*
X014003D01*
X013760Y020636D02*
X013763Y020633D01*
X013852Y021496D02*
X014581Y020768D01*
Y020719D02*
Y020768D01*
X014778Y020263D02*
Y020552D01*
X014896Y020669*
Y020719*
X014899Y020885D02*
X014965Y020951D01*
X014899Y020722D02*
Y020885D01*
X014896Y020719D02*
X014899Y020722D01*
X014778Y020262D02*
Y020263D01*
X014581Y020262D02*
Y020709D01*
X013650Y021827D02*
X013852Y021624D01*
Y021496D02*
Y021624D01*
X014965Y020951D02*
Y021512D01*
X014650Y021827D02*
X014965Y021512D01*
X016038Y019665D02*
X016692Y019011D01*
X016038Y019665D02*
Y019865D01*
X016035Y019868D02*
X016038Y019865D01*
X016032Y019868D02*
X016035D01*
X015759Y019871D02*
X016028D01*
X016032Y019868*
X015369Y019869D02*
X015743D01*
X015368Y019868D02*
X015369Y019869D01*
X016692Y019011D02*
X016879D01*
X017071Y018819*
X012937Y015022D02*
Y015071D01*
G54D54*
X014246Y016493D02*
Y017132D01*
X014069Y016433D02*
X014186D01*
X014010Y016374D02*
X014069Y016433D01*
X014186D02*
X014246Y016493D01*
X014364Y017240D02*
X014365Y017241D01*
X014670*
X014689Y017260*
X014354Y017240D02*
X014364D01*
X014246Y017132D02*
X014354Y017240D01*
G54D55*
X012372Y015532D02*
Y019520D01*
Y015532D02*
D01*
Y015287D02*
Y015532D01*
Y015287D02*
D01*
Y013179D02*
Y015287D01*
Y013179D02*
X012622Y012929D01*
X012372Y019520D02*
X012558Y019706D01*
X013065Y020213D02*
X013144D01*
X012558Y019706D02*
X013065Y020213D01*
G54D56*
X012558Y019706D02*
X013033Y019231D01*
X013259*
X013281Y019209*
X015535Y013264D02*
Y015823D01*
G54D57*
X016520Y016192D02*
X016972Y015739D01*
Y013766D02*
Y015739D01*
X016734Y013528D02*
X016972Y013766D01*
X016736Y012526D02*
X016746Y012535D01*
X016175Y012526D02*
X016736D01*
X016165Y012516D02*
X016175Y012526D01*
X016520Y016192D02*
Y016207D01*
X016538Y013528D02*
X016734D01*
X016520Y013510D02*
X016538Y013528D01*
X016520Y013510D02*
X016545D01*
G54D58*
X016553Y016742D02*
X016799D01*
X016520Y016709D02*
X016553Y016742D01*
X016799D02*
X017012Y016955D01*
Y017476*
X016343Y018146D02*
X017012Y017476D01*
X016343Y018146D02*
Y018165D01*
X016098Y012583D02*
X016165Y012516D01*
X015507Y012583D02*
X016098D01*
X015506Y012585D02*
X015507Y012583D01*
X016136Y017585D02*
X016520Y017201D01*
X015247Y017585D02*
X016136D01*
X014922Y017260D02*
X015247Y017585D01*
X014689Y017260D02*
X014922D01*
X015970Y017258D02*
X016520Y016709D01*
X015575Y017260D02*
X015576Y017258D01*
X015970*
X016080Y016240D02*
X016486D01*
X016520Y016207*
X015808Y016512D02*
X016080Y016240D01*
X015575Y016512D02*
X015808D01*
G54D59*
X014491Y012801D02*
X014963Y012329D01*
X015506*
X013154Y012801D02*
X014491D01*
X012156Y022053D02*
X012219Y021990D01*
Y021659D02*
Y021990D01*
Y021659D02*
X012268Y021610D01*
X016034Y020554D02*
X016037Y020557D01*
X016034Y020206D02*
Y020554D01*
X016032Y020203D02*
X016034Y020206D01*
G54D60*
X015506Y012073D02*
Y012329D01*
G54D61*
X015721Y021247D02*
Y021756D01*
X015650Y021827D02*
X015721Y021756D01*
X016025Y020569D02*
Y020942D01*
Y020569D02*
X016037Y020557D01*
X015721Y021247D02*
X016025Y020942D01*
G54D62*
X016520Y014494D03*
Y014002D03*
Y013510D03*
G54D63*
X016520Y014986D03*
G54D64*
X013650Y021827D03*
G54D65*
X014650Y021827D03*
X015650D03*
X013764Y015823D03*
X015535D03*
Y013264D03*
G54D66*
X017071Y019819D03*
Y020819D03*
Y018819D03*
G54D67*
X013764Y013264D03*
G54D68*
X016520Y016207D03*
Y017201D03*
Y016709D03*
X012642Y011768D03*
X013144Y020213D03*
X016746Y012535D03*
G54D69*
X014173Y011339D03*
X017362Y014173D03*
X014350Y013110D03*
X015413Y020906D03*
X015945Y011339D03*
X015236Y020551D03*
X017539Y013110D03*
X014528Y011339D03*
X014173Y014882D03*
X017539Y011693D03*
X012047Y012047D03*
X012224Y011693D03*
X017362Y017008D03*
X011870Y012402D03*
X014882Y012756D03*
X016299Y011339D03*
X011870Y013819D03*
X012047Y016299D03*
X014528Y013465D03*
X017362Y012047D03*
X015591Y011339D03*
X016299Y021969D03*
X012047Y018425D03*
X015236Y014173D03*
X011870Y019488D03*
X012402Y021260D03*
X011870Y018780D03*
X016122Y021614D03*
X012047Y017008D03*
X017539Y015945D03*
X014350Y011693D03*
X011870Y017362D03*
Y016654D03*
X014705Y013819D03*
X011870Y011693D03*
X017185Y021614D03*
X012047Y019843D03*
X015059Y017900D03*
X016654Y021969D03*
X017185Y011693D03*
Y016654D03*
X014882Y015591D03*
X012047Y017717D03*
X017185Y018071D03*
X012047Y012756D03*
Y019134D03*
X011870Y014528D03*
X017539Y012402D03*
X017008Y021969D03*
X012047Y021260D03*
X017362Y021969D03*
X016299Y015591D03*
X011870Y015945D03*
X014882Y012047D03*
X013110Y014173D03*
X011870Y013110D03*
X012756Y011339D03*
X015059Y013819D03*
X014350Y012402D03*
X012907Y016620D03*
X017185Y012402D03*
X016476Y021614D03*
Y013110D03*
X016122Y016654D03*
Y013110D03*
X016831Y021614D03*
X014882Y011339D03*
X017539Y018071D03*
X016122Y015236D03*
X014350Y015945D03*
X015059Y013110D03*
X017362Y014882D03*
X012047D03*
X017539Y021614D03*
X017362Y013465D03*
X012047D03*
X014882D03*
X015591Y020551D03*
X017008Y012047D03*
X017539Y015236D03*
X015236Y011339D03*
X012402D03*
X012047D03*
X011870Y018071D03*
X016654Y021260D03*
X014705Y011693D03*
X017362Y012756D03*
X016654Y018425D03*
X012756Y013465D03*
X017539Y014528D03*
X015059Y011693D03*
X013465Y011339D03*
X017539Y020197D03*
X014705Y013110D03*
X017539Y016654D03*
X016122Y013819D03*
X014528Y017545D03*
X017539Y017362D03*
X016476Y020906D03*
X013819Y011339D03*
X014173Y021969D03*
X013110Y013465D03*
X017362Y017717D03*
X012907Y017329D03*
X017539Y013819D03*
X012047Y014173D03*
Y015591D03*
X017362Y016299D03*
X014528Y012047D03*
X017539Y019488D03*
X016299Y021260D03*
X017362Y011339D03*
X015945Y014173D03*
X017362Y015591D03*
X011870Y021614D03*
X016831Y018071D03*
X016122Y015945D03*
X017008Y011339D03*
X011870Y015236D03*
X013419Y014268D03*
X015745Y019812D03*
X012967Y015370D03*
X012671Y015459D03*
X012907Y015911D03*
X013232Y021305D03*
X013744Y021246D03*
X014295Y021423D03*
X016047Y018943D03*
X015413Y017900D03*
X015132Y016886D03*
X016018Y014740D03*
X014758Y014681D03*
X014404Y014327D03*
X015201Y014740D03*
X012730Y013963D03*
X012750Y019022D03*
X014532Y018254D03*
X013282Y018451D03*
X015378Y018736D03*
X013016Y021610D03*
X015329Y020262D03*
X014364Y019258D03*
Y019691D03*
X014797Y019258D03*
Y019691D03*
M02*