%FSDAX24Y24*%
%MOIN*%
%SFA1B1*%

%IPPOS*%
%AMD27*
4,1,8,-0.028600,0.006900,-0.028600,-0.006900,-0.024700,-0.010800,0.024700,-0.010800,0.028600,-0.006900,0.028600,0.006900,0.024700,0.010800,-0.024700,0.010800,-0.028600,0.006900,0.0*
1,1,0.007800,-0.024700,0.006900*
1,1,0.007800,-0.024700,-0.006900*
1,1,0.007800,0.024700,-0.006900*
1,1,0.007800,0.024700,0.006900*
%
%ADD14R,0.021700X0.025600*%
%ADD15R,0.039400X0.035400*%
%ADD16R,0.010600X0.020500*%
%ADD17R,0.014200X0.020500*%
%ADD18R,0.020500X0.010600*%
%ADD19R,0.020500X0.014200*%
%ADD20R,0.024400X0.024400*%
%ADD21R,0.031500X0.031500*%
%ADD22O,0.065000X0.017700*%
%ADD23R,0.106300X0.106300*%
%ADD24O,0.031500X0.009800*%
%ADD25O,0.009800X0.031500*%
%ADD26R,0.024400X0.024400*%
G04~CAMADD=27~8~0.0~0.0~217.0~572.0~39.0~0.0~15~0.0~0.0~0.0~0.0~0~0.0~0.0~0.0~0.0~0~0.0~0.0~0.0~90.0~572.0~216.0*
%ADD27D27*%
%ADD28R,0.019700X0.045300*%
%LNptw_ecu_cp_v1.0-1*%
%LPD*%
G54D14*
X013616Y016374D03*
X014010D03*
X012268Y021610D03*
X012661D03*
X012494Y018392D03*
X012888D03*
X015949Y018165D03*
X016343D03*
Y018559D03*
X015949D03*
X014010Y016768D03*
X013616D03*
G54D15*
X012622Y012929D03*
Y012299D03*
X016165Y011886D03*
Y012516D03*
G54D16*
X012937Y015071D03*
X012622D03*
X014581Y020719D03*
X014896D03*
G54D17*
X012780Y014685D03*
X014738Y021104D03*
G54D18*
X013760Y020636D03*
Y020951D03*
X016032Y020183D03*
Y019868D03*
G54D19*
X013374Y020793D03*
X016417Y020026D03*
G54D20*
X012848Y017959D03*
Y017604D03*
X013154Y011620D03*
Y011974D03*
Y012801D03*
Y012447D03*
X013281Y019563D03*
Y019209D03*
G54D21*
X012156Y022053D03*
X012786D03*
G54D22*
X014689Y017260D03*
Y016886D03*
Y016512D03*
X015575Y017260D03*
Y016886D03*
Y016512D03*
G54D23*
X014581Y019474D03*
G54D24*
X015368Y019868D03*
Y019671D03*
Y019474D03*
Y019278D03*
Y019081D03*
X013793D03*
Y019278D03*
Y019474D03*
Y019671D03*
Y019868D03*
G54D25*
X014974Y018687D03*
X014778D03*
X014581D03*
X014384D03*
X014187D03*
Y020262D03*
X014384D03*
X014581D03*
X014778D03*
X014974D03*
G54D26*
X016392Y020557D03*
X016037D03*
G54D27*
X015506Y011817D03*
Y012073D03*
Y012329D03*
X013754Y011817D03*
Y012073D03*
Y012329D03*
Y012585D03*
X015506D03*
G54D28*
X013616Y017270D03*
X014010D03*
X013813Y017860D03*
M02*