%FSDAX24Y24*%
%MOIN*%
%SFA1B1*%

%IPPOS*%
%ADD12C,0.007900*%
%ADD13C,0.006000*%
%LNptw_ecu_cp_v1.0-1*%
%LPD*%
G54D12*
X016244Y018244D02*
Y021394D01*
X017898Y018244D02*
Y021394D01*
X016244Y018244D02*
X017898D01*
X016244Y021394D02*
X017898D01*
G54D13*
X014226Y012448D02*
X014173Y012501D01*
X014066*
X014013Y012448*
Y012394*
X014066Y012341*
X014120*
X014066*
X014013Y012288*
Y012234*
X014066Y012181*
X014173*
X014226Y012234*
X013906Y012501D02*
Y012288D01*
X013800Y012181*
X013693Y012288*
Y012501*
X013587Y012448D02*
X013533Y012501D01*
X013427*
X013373Y012448*
Y012394*
X013427Y012341*
X013480*
X013427*
X013373Y012288*
Y012234*
X013427Y012181*
X013533*
X013587Y012234*
X016159Y012152D02*
X016212Y012206D01*
X016319*
X016372Y012152*
Y011939*
X016319Y011886*
X016212*
X016159Y011939*
Y012046*
X016265*
X016052Y011886D02*
Y012206D01*
X015839Y011886*
Y012206*
X015732D02*
Y011886D01*
X015572*
X015519Y011939*
Y012152*
X015572Y012206*
X015732*
X013301Y015321D02*
Y015641D01*
X013195Y015534*
X013088Y015641*
Y015321*
X012981Y015641D02*
X012875D01*
X012928*
Y015321*
X012981*
X012875*
X012501Y015587D02*
X012555Y015641D01*
X012661*
X012715Y015587*
Y015534*
X012661Y015481*
X012555*
X012501Y015428*
Y015374*
X012555Y015321*
X012661*
X012715Y015374*
X012235Y015641D02*
X012341D01*
X012395Y015587*
Y015374*
X012341Y015321*
X012235*
X012182Y015374*
Y015587*
X012235Y015641*
X015388Y013904D02*
Y014223D01*
X015281Y014117*
X015175Y014223*
Y013904*
X014908Y014223D02*
X015015D01*
X015068Y014170*
Y013957*
X015015Y013904*
X014908*
X014855Y013957*
Y014170*
X014908Y014223*
X014535Y014170D02*
X014588Y014223D01*
X014695*
X014748Y014170*
Y014117*
X014695Y014063*
X014588*
X014535Y014010*
Y013957*
X014588Y013904*
X014695*
X014748Y013957*
X014428Y014223D02*
X014321D01*
X014375*
Y013904*
X014428*
X014321*
X012424Y019911D02*
X012371Y019964D01*
Y020071*
X012424Y020124*
X012638*
X012691Y020071*
Y019964*
X012638Y019911*
X012371Y019804D02*
X012691D01*
Y019591*
X012371Y019484D02*
X012691D01*
X012584*
X012371Y019271*
X012531Y019431*
X012691Y019271*
X013134Y017486D02*
Y017806D01*
X012974*
X012921Y017753*
Y017646*
X012974Y017593*
X013134*
X013027D02*
X012921Y017486D01*
X012601Y017753D02*
X012654Y017806D01*
X012761*
X012814Y017753*
Y017699*
X012761Y017646*
X012654*
X012601Y017593*
Y017540*
X012654Y017486*
X012761*
X012814Y017540*
X012494Y017806D02*
X012281D01*
X012387*
Y017486*
X017051Y012329D02*
X017371D01*
Y012489*
X017318Y012542*
X017211*
X017158Y012489*
Y012329*
X017371Y012649D02*
Y012862D01*
Y012755*
X017051*
X017371Y012969D02*
X017051D01*
X017158Y013075*
X017051Y013182*
X017371*
Y013822D02*
Y013608D01*
X017051*
Y013822*
X017211Y013608D02*
Y013715D01*
X017318Y014141D02*
X017371Y014088D01*
Y013982*
X017318Y013928*
X017105*
X017051Y013982*
Y014088*
X017105Y014141*
X017371Y014248D02*
X017105D01*
X017051Y014301*
Y014408*
X017105Y014461*
X017371*
Y014888D02*
X017158D01*
X017051Y014995*
X017158Y015101*
X017371*
X017051Y015208D02*
Y015314D01*
Y015261*
X017371*
X017318Y015208*
X017051Y015474D02*
X017105D01*
Y015528*
X017051*
Y015474*
Y015741D02*
Y015848D01*
Y015794*
X017371*
X017318Y015741*
X011835Y012083D02*
X012155D01*
X012048Y012189*
X012155Y012296*
X011835*
X012048Y012456D02*
Y012563D01*
X011995Y012616*
X011835*
Y012456*
X011888Y012403*
X011941Y012456*
Y012616*
X012048Y012722D02*
X011835D01*
X011941*
X011995Y012776*
X012048Y012829*
Y012882*
X011835Y013042D02*
X011888D01*
Y013096*
X011835*
Y013042*
Y013842D02*
Y013629D01*
X012048Y013842*
X012101*
X012155Y013789*
Y013682*
X012101Y013629*
Y013949D02*
X012155Y014002D01*
Y014109*
X012101Y014162*
X011888*
X011835Y014109*
Y014002*
X011888Y013949*
X012101*
X011835Y014482D02*
Y014269D01*
X012048Y014482*
X012101*
X012155Y014429*
Y014322*
X012101Y014269*
Y014589D02*
X012155Y014642D01*
Y014748*
X012101Y014802*
X011888*
X011835Y014748*
Y014642*
X011888Y014589*
X012101*
M02*