%FSDAX25Y25*%
%MOIN*%
%SFA1B1*%

%IPPOS*%
%ADD9500C,0.012000*%
%ADD9501C,0.019680*%
%ADD9502C,0.024000*%
%ADD9503C,0.028000*%
%ADD9504C,0.035430*%
%ADD9505C,0.039370*%
%LNptw_ecu_original-1*%
%LPD*%
G54D9500*
X0119134Y0114921D03*
X0132323Y0114823D03*
X0146595Y0115610D03*
X0155059Y0126732D03*
X0146299Y0135591D03*
X0143937Y0144941D03*
X0140984Y0149370D03*
X0149547Y0153898D03*
X0132028Y0141693D03*
X0119331Y0144449D03*
X0119035Y0133425D03*
X0125335Y0129291D03*
X0159390Y0140020D03*
X0161457Y0114724D03*
X0174055D03*
X0163130Y0156457D03*
X0159390Y0174665D03*
X0157717Y0184606D03*
X0169134Y0178405D03*
X0156535Y0210000D03*
X0172972Y0218858D03*
X0121693Y0219252D03*
X0126811Y0212953D03*
X0132520Y0203504D03*
X0139705Y0198878D03*
X0133898Y0192874D03*
X0130847Y0190807D03*
X0133701Y0185492D03*
Y0177717D03*
X0134488Y0167185D03*
X0127795Y0159902D03*
X0123858Y0185492D03*
X0144921Y0176142D03*
X0148169Y0173779D03*
G54D9501*
X0165197Y0135098D03*
Y0140020D03*
Y0144941D03*
Y0149862D03*
Y0162067D03*
Y0167087D03*
Y0172008D03*
G54D9502*
X0145610Y0188150D03*
G54D9503*
X0125433Y0145433D03*
X0126417Y0168858D03*
G54D9504*
X0156496Y0218268D03*
X0146496D03*
X0136496D03*
G54D9505*
X0137638Y0132638D03*
X0155354D03*
X0170709Y0188189D03*
Y0198189D03*
Y0208189D03*
X0155354Y0158228D03*
X0137638D03*
M02*