%FSDAX25Y25*%
%MOIN*%
%SFA1B1*%

%IPPOS*%
%ADD23C,0.010000*%
%ADD24C,0.035000*%
%ADD25C,0.012000*%
%ADD28C,0.020000*%
%ADD30C,0.024000*%
%ADD31C,0.035430*%
%ADD32C,0.059050*%
%ADD33R,0.059050X0.059050*%
%ADD34O,0.059050X0.078740*%
%ADD35R,0.059050X0.059050*%
%ADD36C,0.039370*%
%ADD37R,0.039370X0.039370*%
%ADD38C,0.024000*%
%ADD39C,0.048000*%
%ADD40C,0.050000*%
%LNptw_ecu_original-1*%
%LPD*%
G36*
X0176788Y0111204D02*
X0116204D01*
Y0224150*
X0129465*
X0129714Y0223550*
X0119089Y0212926*
X0118714Y0212363*
X0118582Y0211700*
Y0168957*
Y0150551*
X0118714Y0149888*
X0119089Y0149326*
X0122474Y0145941*
X0122407Y0145433*
X0122510Y0144650*
X0122813Y0143920*
X0123293Y0143293*
X0123920Y0142813*
X0124650Y0142510*
X0125433Y0142407*
X0126216Y0142510*
X0126946Y0142813*
X0127573Y0143293*
X0128054Y0143920*
X0128356Y0144650*
X0128459Y0145433*
X0128356Y0146216*
X0128054Y0146946*
X0127573Y0147573*
X0126946Y0148054*
X0126216Y0148356*
X0125433Y0148459*
X0124925Y0148392*
X0122048Y0151269*
Y0167125*
X0123966*
X0124278Y0166719*
X0124904Y0166238*
X0125634Y0165936*
X0126417Y0165832*
X0127200Y0165936*
X0127930Y0166238*
X0128557Y0166719*
X0129038Y0167345*
X0129340Y0168075*
X0129443Y0168858*
X0129340Y0169641*
X0129038Y0170371*
X0128557Y0170998*
X0127930Y0171479*
X0127200Y0171781*
X0126417Y0171884*
X0125634Y0171781*
X0124904Y0171479*
X0124278Y0170998*
X0123966Y0170592*
X0122048*
Y0210982*
X0132253Y0221187*
X0133716*
X0133924Y0220587*
X0133480Y0220009*
X0133132Y0219169*
X0133013Y0218268*
X0133132Y0217366*
X0133480Y0216527*
X0134034Y0215805*
X0134755Y0215252*
X0135595Y0214904*
X0136496Y0214785*
X0137397Y0214904*
X0138237Y0215252*
X0138959Y0215805*
X0139512Y0216527*
X0139860Y0217366*
X0139979Y0218268*
X0139860Y0219169*
X0139512Y0220009*
X0139068Y0220587*
X0139276Y0221187*
X0143716*
X0143924Y0220587*
X0143480Y0220009*
X0143132Y0219169*
X0143014Y0218268*
X0143132Y0217366*
X0143480Y0216527*
X0144034Y0215805*
X0144755Y0215252*
X0145375Y0214995*
Y0199441*
X0141426Y0195493*
X0141000Y0195602*
X0140826Y0195722*
Y0197583*
X0140930Y0197652*
X0141306Y0198215*
X0141438Y0198878*
X0141306Y0199541*
X0140930Y0200104*
X0140368Y0200479*
X0139705Y0200611*
X0139041Y0200479*
X0138479Y0200104*
X0138103Y0199541*
X0137971Y0198878*
X0138103Y0198215*
X0138479Y0197652*
X0138583Y0197583*
Y0190590*
X0137983Y0190375*
X0135607Y0192751*
X0135631Y0192874*
X0135499Y0193537*
X0135123Y0194100*
X0134561Y0194475*
X0133898Y0194607*
X0133397Y0194508*
X0133019Y0194990*
X0133016Y0194997*
X0133172Y0195200*
X0133474Y0195929*
X0133577Y0196713*
X0133474Y0197496*
X0133172Y0198225*
X0132691Y0198852*
X0132064Y0199333*
X0131334Y0199635*
X0130551Y0199739*
X0129768Y0199635*
X0129038Y0199333*
X0128412Y0198852*
X0127931Y0198225*
X0127628Y0197496*
X0127525Y0196713*
X0127628Y0195929*
X0127931Y0195200*
X0128412Y0194573*
X0129022Y0194105*
Y0191102*
X0129138Y0190517*
X0129185Y0190448*
X0129245Y0190144*
X0129621Y0189582*
X0130183Y0189206*
X0130847Y0189074*
X0131510Y0189206*
X0132072Y0189582*
X0132448Y0190144*
X0132580Y0190807*
X0132538Y0191016*
X0133078Y0191377*
X0133234Y0191273*
X0133898Y0191141*
X0134020Y0191165*
X0136221Y0188965*
Y0173681*
X0136306Y0173252*
X0136549Y0172888*
X0141733Y0167705*
Y0160239*
X0141133Y0160120*
X0141091Y0160222*
X0140457Y0161047*
X0139631Y0161681*
X0138670Y0162079*
X0138138Y0162149*
Y0158228*
Y0154307*
X0138670Y0154377*
X0139631Y0154776*
X0140457Y0155409*
X0141091Y0156235*
X0141133Y0156337*
X0141733Y0156218*
Y0151705*
X0141107Y0151079*
X0140984Y0151103*
X0140321Y0150971*
X0140213Y0150900*
X0138260*
X0136064Y0150989*
X0136026Y0151080*
X0135545Y0151707*
X0134918Y0152187*
X0134189Y0152490*
X0133405Y0152593*
X0132622Y0152490*
X0131893Y0152187*
X0131266Y0151707*
X0130785Y0151080*
X0130483Y0150350*
X0130380Y0149567*
X0130483Y0148784*
X0130785Y0148054*
X0131266Y0147427*
X0131893Y0146946*
X0132622Y0146644*
X0133405Y0146541*
X0134189Y0146644*
X0134918Y0146946*
X0135545Y0147427*
X0135933Y0147933*
X0138166Y0147842*
X0138197Y0147847*
X0138228Y0147841*
X0140213*
X0140321Y0147769*
X0140984Y0147637*
X0141648Y0147769*
X0142210Y0148144*
X0142586Y0148707*
X0142718Y0149370*
X0142693Y0149493*
X0143647Y0150447*
X0143719Y0150554*
X0144319Y0150372*
Y0147144*
X0143937Y0146674*
X0143274Y0146542*
X0142711Y0146167*
X0142336Y0145604*
X0142310Y0145477*
X0141525Y0144691*
X0141119Y0145002*
X0140390Y0145305*
X0139606Y0145408*
X0138823Y0145305*
X0138093Y0145002*
X0137467Y0144521*
X0136986Y0143895*
X0136683Y0143165*
X0136580Y0142382*
X0136683Y0141599*
X0136986Y0140869*
X0137467Y0140242*
X0138093Y0139761*
X0138823Y0139459*
X0139606Y0139356*
X0140390Y0139459*
X0141119Y0139761*
X0141746Y0140242*
X0142227Y0140869*
X0142385Y0141251*
X0142459Y0141300*
X0144473Y0143314*
X0144600Y0143340*
X0145163Y0143715*
X0145538Y0144278*
X0145670Y0144941*
X0145646Y0145064*
X0146233Y0145651*
X0146476Y0146015*
X0146562Y0146444*
Y0169028*
X0146476Y0169457*
X0146233Y0169821*
X0144049Y0172005*
X0144279Y0172559*
X0146940*
X0146944Y0172554*
X0147506Y0172178*
X0148169Y0172046*
X0148833Y0172178*
X0149395Y0172554*
X0149771Y0173116*
X0149903Y0173779*
X0149771Y0174443*
X0149395Y0175005*
X0148833Y0175381*
X0148169Y0175513*
X0147506Y0175381*
X0147254Y0175213*
X0147042Y0175250*
X0147036Y0175252*
X0146612Y0175927*
X0146655Y0176142*
X0146630Y0176265*
X0153421Y0183055*
X0153496Y0183023*
X0153916Y0182702*
X0153825Y0182244*
Y0161332*
X0153613Y0161244*
X0152892Y0160691*
X0152338Y0159970*
X0151990Y0159130*
X0151872Y0158228*
X0151990Y0157327*
X0152338Y0156487*
X0152892Y0155766*
X0153613Y0155212*
X0153825Y0155125*
Y0135741*
X0153613Y0135654*
X0152892Y0135100*
X0152338Y0134379*
X0151990Y0133539*
X0151872Y0132638*
X0151990Y0131736*
X0152338Y0130896*
X0152892Y0130175*
X0153613Y0129622*
X0154453Y0129274*
X0155354Y0129155*
X0156256Y0129274*
X0157096Y0129622*
X0157817Y0130175*
X0158370Y0130896*
X0158718Y0131736*
X0158837Y0132638*
X0158718Y0133539*
X0158370Y0134379*
X0157817Y0135100*
X0157096Y0135654*
X0156884Y0135741*
Y0155125*
X0157096Y0155212*
X0157817Y0155766*
X0158370Y0156487*
X0158718Y0157327*
X0158837Y0158228*
X0158718Y0159130*
X0158370Y0159970*
X0157817Y0160691*
X0157096Y0161244*
X0156884Y0161332*
Y0181611*
X0158253Y0182980*
X0158380Y0183005*
X0158942Y0183381*
X0159318Y0183943*
X0159450Y0184606*
X0159318Y0185270*
X0158942Y0185832*
X0158380Y0186208*
X0158007Y0186282*
X0157689Y0186879*
X0157687Y0186911*
X0157783Y0187067*
X0167244*
X0167345Y0186303*
X0167693Y0185463*
X0168246Y0184742*
X0168967Y0184189*
X0169807Y0183841*
X0170709Y0183722*
X0171610Y0183841*
X0172450Y0184189*
X0173171Y0184742*
X0173725Y0185463*
X0174073Y0186303*
X0174191Y0187205*
Y0189173*
X0174073Y0190075*
X0173725Y0190914*
X0173171Y0191636*
X0172450Y0192189*
X0171610Y0192537*
X0170709Y0192656*
X0169807Y0192537*
X0168967Y0192189*
X0168246Y0191636*
X0167693Y0190914*
X0167345Y0190075*
X0167244Y0189311*
X0156968*
X0156539Y0189225*
X0156175Y0188982*
X0145044Y0177851*
X0144921Y0177875*
X0144258Y0177743*
X0143832Y0177458*
X0143360Y0177626*
X0143232Y0177724*
Y0194126*
X0147289Y0198183*
X0147532Y0198547*
X0147618Y0198976*
Y0214995*
X0148237Y0215252*
X0148959Y0215805*
X0149512Y0216527*
X0149860Y0217366*
X0149979Y0218268*
X0149860Y0219169*
X0149512Y0220009*
X0149068Y0220587*
X0149276Y0221187*
X0151125*
X0153043Y0219269*
Y0214815*
X0159949*
Y0221721*
X0155495*
X0153665Y0223550*
X0153913Y0224150*
X0176788*
Y0111204*
G37*
%LNptw_ecu_original-2*%
%LPC*%
G36*
X0137138Y0136591D02*
X0133685D01*
Y0133138*
X0137138*
Y0136591*
G37*
G36*
X0141590D02*
X0138138D01*
Y0133138*
X0141590*
Y0136591*
G37*
G36*
Y0132138D02*
X0138138D01*
Y0128685*
X0141590*
Y0132138*
G37*
G36*
X0125335Y0131025D02*
X0124671Y0130893D01*
X0124109Y0130517*
X0123733Y0129955*
X0123601Y0129291*
X0123733Y0128628*
X0123805Y0128520*
Y0128110*
X0123922Y0127525*
X0124253Y0127029*
X0127330Y0123952*
X0127230Y0123189*
X0127333Y0122406*
X0127635Y0121676*
X0128116Y0121049*
X0128743Y0120569*
X0129473Y0120266*
X0130256Y0120163*
X0131039Y0120266*
X0131769Y0120569*
X0132396Y0121049*
X0132876Y0121676*
X0133179Y0122406*
X0133282Y0123189*
X0133179Y0123972*
X0132876Y0124702*
X0132396Y0125329*
X0131769Y0125810*
X0131039Y0126112*
X0130256Y0126215*
X0129493Y0126114*
X0126943Y0128665*
X0127068Y0129291*
X0126936Y0129955*
X0126560Y0130517*
X0125998Y0130893*
X0125335Y0131025*
G37*
G36*
X0137138Y0132138D02*
X0133685D01*
Y0128685*
X0137138*
Y0132138*
G37*
G36*
X0165197Y0174324D02*
X0164311Y0174148D01*
X0163559Y0173646*
X0163057Y0172894*
X0162881Y0172008*
X0163057Y0171122*
X0163559Y0170370*
X0164311Y0169868*
X0164385Y0169853*
Y0169241*
X0164311Y0169226*
X0163559Y0168724*
X0163057Y0167973*
X0162881Y0167087*
X0163057Y0166200*
X0163559Y0165449*
X0164311Y0164947*
X0164633Y0164883*
Y0164271*
X0164311Y0164207*
X0163559Y0163705*
X0163057Y0162953*
X0162881Y0162067*
X0163057Y0161181*
X0163559Y0160429*
X0163653Y0160366*
X0168415Y0155605*
Y0138805*
X0167002Y0137392*
X0166207*
X0166160Y0137424*
X0165197Y0137615*
X0164234Y0137424*
X0163417Y0136878*
X0162872Y0136062*
X0162680Y0135098*
X0162872Y0134135*
X0163417Y0133319*
X0164234Y0132773*
X0165197Y0132582*
X0166160Y0132773*
X0166207Y0132804*
X0167953*
X0168831Y0132979*
X0169575Y0133476*
X0172331Y0136232*
X0172828Y0136976*
X0173003Y0137854*
Y0156555*
X0172828Y0157433*
X0172331Y0158177*
X0166897Y0163611*
X0166835Y0163705*
X0166083Y0164207*
X0165761Y0164271*
Y0164883*
X0166083Y0164947*
X0166835Y0165449*
X0167337Y0166200*
X0167513Y0167087*
X0167337Y0167973*
X0166835Y0168724*
X0166083Y0169226*
X0166008Y0169241*
Y0169853*
X0166083Y0169868*
X0166835Y0170370*
X0167337Y0171122*
X0167513Y0172008*
X0167337Y0172894*
X0166835Y0173646*
X0166083Y0174148*
X0165197Y0174324*
G37*
G36*
X0133701Y0187225D02*
X0133037Y0187093D01*
X0132475Y0186718*
X0132099Y0186155*
X0131967Y0185492*
X0132099Y0184829*
X0132410Y0184365*
X0131966Y0183949*
X0131670Y0184176*
X0130941Y0184478*
X0130157Y0184581*
X0129374Y0184478*
X0128645Y0184176*
X0128018Y0183695*
X0127537Y0183068*
X0127235Y0182338*
X0127132Y0181555*
X0127235Y0180772*
X0127537Y0180042*
X0128018Y0179416*
X0128645Y0178935*
X0129374Y0178632*
X0130157Y0178529*
X0130941Y0178632*
X0131670Y0178935*
X0131831Y0179058*
X0132274Y0178642*
X0132099Y0178380*
X0131967Y0177717*
X0132099Y0177053*
X0132475Y0176491*
X0133037Y0176115*
X0133701Y0175983*
X0134364Y0176115*
X0134926Y0176491*
X0135302Y0177053*
X0135434Y0177717*
X0135302Y0178380*
X0134926Y0178942*
X0134720Y0179080*
Y0181555*
Y0184129*
X0134926Y0184266*
X0135302Y0184829*
X0135434Y0185492*
X0135302Y0186155*
X0134926Y0186718*
X0134364Y0187093*
X0133701Y0187225*
G37*
G36*
X0170709Y0212656D02*
X0169807Y0212537D01*
X0168967Y0212189*
X0168246Y0211636*
X0167693Y0210914*
X0167345Y0210075*
X0167226Y0209173*
Y0207205*
X0167345Y0206303*
X0167693Y0205464*
X0168246Y0204742*
X0168967Y0204189*
X0169807Y0203841*
X0170709Y0203722*
X0171610Y0203841*
X0172450Y0204189*
X0173171Y0204742*
X0173725Y0205464*
X0174073Y0206303*
X0174191Y0207205*
Y0209173*
X0174073Y0210075*
X0173725Y0210914*
X0173171Y0211636*
X0172450Y0212189*
X0171610Y0212537*
X0170709Y0212656*
G37*
G36*
X0137138Y0162149D02*
X0136606Y0162079D01*
X0135644Y0161681*
X0134819Y0161047*
X0134185Y0160222*
X0133787Y0159260*
X0133717Y0158728*
X0137138*
Y0162149*
G37*
G36*
X0167665Y0152331D02*
X0162728D01*
Y0147394*
X0163345*
X0163526Y0146794*
X0163417Y0146721*
X0162872Y0145904*
X0162680Y0144941*
X0162872Y0143978*
X0163417Y0143161*
X0164234Y0142616*
X0165197Y0142424*
X0166160Y0142616*
X0166976Y0143161*
X0167522Y0143978*
X0167714Y0144941*
X0167522Y0145904*
X0166976Y0146721*
X0166867Y0146794*
X0167049Y0147394*
X0167665*
Y0152331*
G37*
G36*
X0137138Y0157728D02*
X0133717D01*
X0133787Y0157196*
X0134185Y0156235*
X0134819Y0155409*
X0135644Y0154776*
X0136606Y0154377*
X0137138Y0154307*
Y0157728*
G37*
%LNptw_ecu_original-3*%
%LPD*%
G54D23*
X0133701Y0181555D02*
Y0185492D01*
Y0177717D02*
Y0181555D01*
X0130157D02*
X0133701D01*
G54D24*
X0165197Y0162067D02*
X0170709Y0156555D01*
Y0137854D02*
Y0156555D01*
X0167953Y0135098D02*
X0170709Y0137854D01*
X0165197Y0135098D02*
X0167953D01*
G54D25*
X0142854Y0151240D02*
Y0168169D01*
X0133898Y0192874D02*
X0137343Y0189429D01*
Y0173681D02*
X0142854Y0168169D01*
X0137343Y0173681D02*
Y0189429D01*
X0139705Y0174764D02*
Y0198878D01*
Y0174764D02*
X0145440Y0169028D01*
X0148071Y0173681D02*
X0148169Y0173779D01*
X0143445Y0173681D02*
X0148071D01*
X0142110Y0175016D02*
X0143445Y0173681D01*
X0146496Y0198976D02*
Y0218268D01*
X0142110Y0175016D02*
Y0194591D01*
X0146496Y0198976*
X0156968Y0188189D02*
X0170709D01*
X0144921Y0176142D02*
X0156968Y0188189D01*
X0145440Y0146444D02*
Y0169028D01*
X0143937Y0144941D02*
X0145440Y0146444D01*
X0140984Y0149370D02*
X0142854Y0151240D01*
G54D28*
X0125335Y0128110D02*
Y0129291D01*
Y0128110D02*
X0130256Y0123189D01*
X0141378Y0142382D02*
X0143937Y0144941D01*
X0139606Y0142382D02*
X0141378D01*
X0138228Y0149370D02*
X0140984D01*
X0133405Y0149567D02*
X0138228Y0149370D01*
X0130551Y0191102D02*
Y0196713D01*
Y0191102D02*
X0130847Y0190807D01*
X0155354Y0158228D02*
Y0182244D01*
X0157717Y0184606*
X0155354Y0132638D02*
Y0158228D01*
G54D30*
X0131535Y0222920D02*
X0151843D01*
X0120315Y0168957D02*
Y0211700D01*
X0131535Y0222920*
X0120315Y0150551D02*
Y0168957D01*
X0120413Y0168858*
X0126417*
X0120315Y0150551D02*
X0125433Y0145433D01*
X0151843Y0222920D02*
X0156496Y0218268D01*
G54D31*
X0165197Y0167087D03*
Y0172008D03*
Y0162067D03*
G54D32*
X0155354Y0132638D03*
Y0158228D03*
X0137638D03*
X0136496Y0218268D03*
X0146496D03*
G54D33*
X0137638Y0132638D03*
G54D34*
X0170709Y0188189D03*
Y0208189D03*
Y0198189D03*
G54D35*
X0156496Y0218268D03*
G54D36*
X0165197Y0135098D03*
Y0140020D03*
Y0144941D03*
G54D37*
X0165197Y0149862D03*
G54D38*
X0121693Y0219252D03*
X0119331Y0144449D03*
X0163130Y0156457D03*
X0159390Y0140020D03*
X0155059Y0126732D03*
X0119035Y0133425D03*
X0125335Y0129291D03*
X0172972Y0218858D03*
X0156535Y0210000D03*
X0126811Y0212953D03*
X0127795Y0159902D03*
X0123858Y0185492D03*
X0132520Y0203504D03*
X0134488Y0167185D03*
X0146299Y0135591D03*
X0119134Y0114921D03*
X0132323Y0114823D03*
X0146595Y0115610D03*
X0161457Y0114724D03*
X0174055D03*
X0169134Y0178405D03*
X0159390Y0174665D03*
X0149547Y0153898D03*
X0132028Y0141693D03*
X0140984Y0149370D03*
X0143937Y0144941D03*
X0130847Y0190807D03*
X0139705Y0198878D03*
X0133898Y0192874D03*
X0157717Y0184606D03*
X0148169Y0173779D03*
X0144921Y0176142D03*
X0133701Y0177717D03*
Y0185492D03*
G54D39*
X0145610Y0188150D03*
G54D40*
X0130157Y0181555D03*
X0130256Y0123189D03*
X0167264Y0116693D03*
X0133405Y0149567D03*
X0139606Y0142382D03*
X0130551Y0196713D03*
X0126417Y0168858D03*
X0125433Y0145433D03*
M02*